HIERARCHY
ROOT Hips
{
    OFFSET 0.000000 0.000000 0.000000
    CHANNELS 6 Xposition Yposition Zposition Zrotation Xrotation Yrotation
        JOINT Chest
        {
            OFFSET -0.000000 34.136871 -0.000000
            CHANNELS 3 Zrotation Xrotation Yrotation
            JOINT Neck
            {
                OFFSET -0.000000 25.684828 0.000000
                CHANNELS 3 Zrotation Xrotation Yrotation
                JOINT Head
                {
                    OFFSET -0.000000 11.244446 0.000000
                    CHANNELS 3 Zrotation Xrotation Yrotation
                    End Site
                    {
                        OFFSET -0.000000 17.377779 0.000000
                    }
                }
            }
            JOINT LeftCollar
            {
                OFFSET -0.000000 25.684828 0.000000
                CHANNELS 3 Zrotation Xrotation Yrotation
                JOINT LeftShoulder
                {
                    OFFSET 22.000002 -0.000000 0.000000
                    CHANNELS 3 Zrotation Xrotation Yrotation
                    JOINT LeftElbow
                    {
                        OFFSET 28.873522 0.000000 0.000000
                        CHANNELS 3 Zrotation Xrotation Yrotation
                        JOINT LeftWrist
                        {
                            OFFSET 21.914822 0.000000 0.000000
                            CHANNELS 3 Zrotation Xrotation Yrotation
                            End Site
                            {
                                OFFSET 15.333338 0.000000 0.000000
                            }
                        }
                    }
                }
            }
            JOINT RightCollar
            {
                OFFSET -0.000000 25.684828 0.000000
                CHANNELS 3 Zrotation Xrotation Yrotation
                JOINT RightShoulder
                {
                    OFFSET -22.000002 0.000000 0.000000
                    CHANNELS 3 Zrotation Xrotation Yrotation
                    JOINT RightElbow
                    {
                        OFFSET -28.873522 0.000000 0.000000
                        CHANNELS 3 Zrotation Xrotation Yrotation
                        JOINT RightWrist
                        {
                            OFFSET -21.914822 0.000000 0.000000
                            CHANNELS 3 Zrotation Xrotation Yrotation
                            End Site
                            {
                                OFFSET -15.333338 0.000000 0.000000
                            }
                        }
                    }
                }
            }
        }
    JOINT LeftHip
    {
        OFFSET 12.266668 0.000000 0.000000
        CHANNELS 3 Zrotation Xrotation Yrotation
        JOINT LeftKnee
        {
            OFFSET -0.000000 -43.289558 0.000000
            CHANNELS 3 Zrotation Xrotation Yrotation
            JOINT LeftAnkle
            {
                OFFSET -0.000000 -38.945736 0.000000
                CHANNELS 3 Zrotation Xrotation Yrotation
                End Site
                {
                    OFFSET -0.000000 -5.111114 17.377779
                }
            }
        }
    }
    JOINT RightHip
    {
        OFFSET -12.266668 0.000000 0.000000
        CHANNELS 3 Zrotation Xrotation Yrotation
        JOINT RightKnee
        {
            OFFSET -0.000000 -43.289558 0.000000
            CHANNELS 3 Zrotation Xrotation Yrotation
            JOINT RightAnkle
            {
                OFFSET -0.000000 -38.945736 0.000000
                CHANNELS 3 Zrotation Xrotation Yrotation
                End Site
                {
                    OFFSET -0.000000 -5.111114 17.377779
                }
            }
        }
    }
}
MOTION
Frames:    5
Frame Time:    0.010000
-32.984219    91.834961    20.466801    -1.194663    -5.194321    6.888391    6.989135    18.697935    -10.870914    3.008043    15.603670    -0.694651    12.371630    -32.695263    3.356634    -24.039068    -2.903428    13.634088    -37.835190    55.557407    -29.707531    19.192612    -6.284540    -36.130554    7.567707    2.153557    -2.632937    28.521013    -2.263080    -8.845951    55.837086    27.927971    -7.942721    -23.971458    -7.024441    32.649078    -0.366617    -3.114452    -3.416077    -9.362067    6.698092    6.624263    4.482248    17.581381    4.630370    3.713228    -14.269499    21.054499    -1.428357    -15.411235    -5.434939    -4.965694    62.693306    -2.536097    3.420713    -5.762411    -25.292227    
-33.266567    91.847298    20.240646    -1.138459    -4.970895    6.483634    6.925526    18.365704    -10.332857    3.140221    15.750086    -0.739059    12.168685    -32.944035    3.305484    -24.090824    -2.895556    13.512999    -39.174507    55.229115    -27.764481    18.586163    -5.800039    -34.242443    6.847816    2.630245    -2.021673    28.573557    -2.242956    -8.887156    55.677277    27.531221    -8.217500    -23.827740    -7.037889    32.845577    -0.436410    -2.931037    -3.297216    -9.345950    6.741540    6.109256    4.191911    16.765060    5.987978    3.801080    -14.093884    20.502199    -1.457253    -14.371624    -5.613515    -5.953214    61.743095    -0.903551    2.738606    -6.016580    -26.064981    
-33.554253    91.855133    20.013033    -1.050804    -4.766256    6.046765    6.838748    18.062532    -9.812785    3.252224    15.852205    -0.752720    11.964437    -33.129955    3.274877    -24.193884    -2.891401    13.379438    -40.569473    54.764595    -25.722607    18.024485    -5.330049    -32.307083    6.200901    3.018523    -1.276127    28.604149    -2.276060    -8.914475    55.537331    27.180822    -8.467482    -23.780399    -7.089101    33.068825    -0.436666    -2.806419    -3.222909    -9.343608    6.777714    5.642133    3.918942    15.995523    7.397194    3.801059    -13.908945    19.861578    -1.527917    -13.353510    -5.687497    -6.596847    60.719273    0.147611    2.270447    -6.232155    -26.449987    
-33.847843    91.861061    19.781555    -0.933798    -4.578684    5.591017    6.720371    17.793438    -9.321875    3.343418    15.891329    -0.727174    11.780450    -33.238434    3.275506    -24.348095    -2.892606    13.225760    -41.988934    54.123783    -23.593678    17.534380    -4.897860    -30.355715    5.613066    3.341339    -0.454928    28.623352    -2.299098    -8.936933    55.396549    26.792263    -8.669063    -23.691872    -7.113540    33.284515    -0.439313    -2.634665    -3.153697    -9.345598    6.775595    5.295205    3.675441    15.322027    8.775184    3.688517    -13.733367    19.144894    -1.629648    -12.336077    -5.666533    -6.975595    59.596886    0.764021    2.082163    -6.482839    -26.503326    
-34.145664    91.867531    19.544008    -0.789466    -4.405026    5.135108    6.563927    17.561510    -8.869784    3.415131    15.859446    -0.673727    11.650255    -33.272488    3.327478    -24.546467    -2.889077    13.042964    -43.389404    53.272579    -21.401567    17.096565    -4.494759    -28.433706    5.095976    3.627873    0.392442    28.633675    -2.280697    -8.970002    55.252197    26.375912    -8.755526    -23.596855    -7.126327    33.480434    -0.437979    -2.472418    -3.084924    -9.347199    6.702758    5.137400    3.473768    14.800666    9.974252    3.471673    -13.581793    18.427662    -1.751126    -11.302480    -5.591424    -7.212884    58.351669    1.162811    2.202445    -6.820756    -26.314699    
